<?xml version="1.0" encoding="UTF-8" standalone="no"?>
<!-- Created with Inkscape (http://www.inkscape.org/) -->

<svg
   width="200"
   height="200"
   viewBox="0 0 52.916665 52.916666"
   version="1.1"
   id="svg1"
   xml:space="preserve"
   inkscape:version="1.4 (86a8ad7, 2024-10-11)"
   sodipodi:docname="splashScreen.svg"
   xmlns:inkscape="http://www.inkscape.org/namespaces/inkscape"
   xmlns:sodipodi="http://sodipodi.sourceforge.net/DTD/sodipodi-0.dtd"
   xmlns="http://www.w3.org/2000/svg"
   xmlns:svg="http://www.w3.org/2000/svg"><sodipodi:namedview
     id="namedview1"
     pagecolor="#505050"
     bordercolor="#eeeeee"
     borderopacity="1"
     inkscape:showpageshadow="0"
     inkscape:pageopacity="0"
     inkscape:pagecheckerboard="0"
     inkscape:deskcolor="#505050"
     inkscape:document-units="mm"
     inkscape:zoom="2.0334082"
     inkscape:cx="106.96327"
     inkscape:cy="138.92931"
     inkscape:window-width="1920"
     inkscape:window-height="1009"
     inkscape:window-x="1912"
     inkscape:window-y="-8"
     inkscape:window-maximized="1"
     inkscape:current-layer="layer1" /><defs
     id="defs1" /><g
     inkscape:label="Capa 1"
     inkscape:groupmode="layer"
     id="layer1"><path
       style="fill:#000000;stroke-width:0.137867"
       d="M 30.72046,40.087839 C 27.858987,39.901165 24.503809,39.098507 21.62404,37.911703 20.578274,37.480724 19.193826,36.823531 18.467017,36.413074 17.721603,35.992111 17.552361,35.892505 16.97419,35.534517 16.199904,35.0551 15.588089,34.635472 14.830514,34.064228 13.984752,33.426495 12.580239,32.195072 12.083563,31.65581 11.985326,31.549152 11.782283,31.33057 11.632357,31.17007 11.482428,31.009569 11.209011,30.697692 11.024759,30.477003 9.3824112,28.509892 8.2991453,26.477908 7.8161268,24.458277 7.6005008,23.556694 7.5614852,23.210528 7.5612251,22.196693 7.5609521,21.223488 7.5959411,20.898224 7.7794863,20.166782 8.3684,17.81982 10.006956,15.860807 12.466529,14.563088 c 1.778798,-0.93853 3.819173,-1.488349 6.321488,-1.703446 0.853122,-0.07334 2.659803,-0.0736 3.600293,-5.2e-4 2.801334,0.217633 5.483751,0.824668 8.189119,1.853206 3.341057,1.270217 6.525181,3.166848 9.009854,5.366742 0.462394,0.409397 1.553661,1.49925 1.956028,1.953494 0.86474,0.976232 1.708309,2.157631 2.266023,3.17351 0.294978,0.537308 0.86651,1.753267 0.86651,1.843542 0,0.0062 -0.143629,-0.05075 -0.319174,-0.126461 -2.265689,-0.977188 -3.062688,-1.332511 -3.10228,-1.383073 -0.02603,-0.03324 -0.130215,-0.199954 -0.231532,-0.370484 -1.359506,-2.288257 -3.794536,-4.619448 -6.578852,-6.298302 -3.493385,-2.106399 -7.34451,-3.371705 -11.307914,-3.71527 -1.252415,-0.108564 -3.137079,-0.0589 -4.286065,0.112939 -2.562977,0.383317 -4.66282,1.303302 -6.09756,2.671463 -1.048736,1.000072 -1.704334,2.168496 -1.988127,3.543301 -0.113987,0.552208 -0.156413,1.598356 -0.08835,2.178749 0.249593,2.128501 1.302702,4.278099 3.1062,6.34034 3.126542,3.575102 8.185315,6.364458 13.421108,7.400257 0.961718,0.190258 1.538699,0.273737 2.735785,0.395825 0.719461,0.07338 2.94217,0.06142 3.665954,-0.01972 3.065252,-0.343642 5.441873,-1.359326 7.023127,-3.001427 0.510359,-0.529996 0.867717,-1.022099 1.146996,-1.579478 l 0.09867,-0.196924 -0.176626,0.02501 c -0.233571,0.03303 -0.924043,0.115551 -1.79986,0.215075 -0.660551,0.07506 -0.868773,0.08066 -2.918172,0.07845 -3.273839,-0.0035 -4.954378,-0.13161 -6.948896,-0.52958 -0.779942,-0.155625 -1.749922,-0.453343 -2.717547,-0.834107 -0.290905,-0.114472 -0.559993,-0.219553 -0.597974,-0.233509 -0.03798,-0.01396 -0.06237,-0.03207 -0.05419,-0.04022 0.0082,-0.0082 0.129532,0.01751 0.26968,0.05705 0.616841,0.174101 1.866736,0.394512 3.083567,0.543765 2.782119,0.341255 3.368014,0.376612 5.870494,0.354279 1.917414,-0.01712 2.318627,-0.0342 3.666505,-0.156024 0.863059,-0.07801 1.854729,-0.210017 3.155273,-0.420005 0.758139,-0.122412 1.105918,-0.200058 1.714427,-0.382766 0.965686,-0.289952 0.897763,-0.282757 0.927747,-0.09827 0.02773,0.170625 -0.02858,0.752089 -0.103335,1.066957 -0.194504,0.819284 -0.718153,1.951669 -1.239812,2.681068 -0.969054,1.354967 -2.107709,2.310134 -3.726997,3.126419 -1.655512,0.834545 -3.423475,1.321355 -5.742909,1.581311 -0.615933,0.06903 -3.04428,0.101912 -3.814739,0.05165 z m -4.39092,-8.657047 c -9.54e-4,-0.01712 0.04619,-0.174049 0.10473,-0.348765 0.14416,-0.43029 0.200795,-0.848847 0.1728,-1.277074 -0.02913,-0.445589 -0.09867,-0.731749 -0.269051,-1.107208 -0.176098,-0.388049 -0.364901,-0.662658 -0.643879,-0.936504 -0.276395,-0.271311 -0.416849,-0.36807 -0.799859,-0.551034 -1.303816,-0.622819 -2.975883,-0.292123 -4.079194,0.806776 -0.32562,0.324317 -0.660594,0.78345 -0.833744,1.142773 -0.166892,0.346334 -0.327927,0.878389 -0.33092,1.093347 -0.0012,0.08302 -0.01569,0.216606 -0.03228,0.296856 l -0.03018,0.145908 -0.0071,-0.200626 c -0.01355,-0.384604 0.0043,-0.676566 0.05691,-0.930163 0.310144,-1.495292 1.564372,-2.632643 3.239255,-2.937409 0.401793,-0.07311 1.20196,-0.02778 1.605806,0.09099 0.910654,0.267795 1.651697,0.866218 2.040253,1.647592 0.424863,0.854386 0.387308,1.985011 -0.09677,2.913255 -0.05231,0.100312 -0.09588,0.168393 -0.09681,0.15129 z m -7.552467,-0.88157 c -0.306685,-0.06625 -0.600817,-0.155559 -1.02136,-0.310122 -1.445155,-0.531136 -3.21431,-1.194462 -3.757148,-1.408705 -0.03055,-0.01205 -0.03762,-0.02808 -0.01599,-0.03632 0.0368,-0.014 1.384864,0.438564 1.796842,0.603221 0.259686,0.103793 1.582446,0.480205 2.392838,0.680918 0.359504,0.08904 0.657055,0.165953 0.661224,0.170915 0.02829,0.03368 0.165254,0.327849 0.155881,0.334797 -0.0064,0.0048 -0.101945,-0.01084 -0.212288,-0.03467 z M 33.87861,29.378447 c -0.626318,-0.0758 -1.73815,-0.485745 -2.957513,-1.090452 -0.309392,-0.153436 -0.677434,-0.329006 -0.817871,-0.390156 -0.58055,-0.252787 -0.838792,-0.357243 -0.883195,-0.357243 -0.07932,0 -0.05201,-0.07041 0.0351,-0.09047 0.04514,-0.0104 0.188769,-0.0433 0.319175,-0.07311 0.310505,-0.07098 0.98851,-0.07018 1.40437,0.0017 0.180562,0.0312 0.582722,0.122031 0.89369,0.201856 1.012355,0.259864 1.180015,0.288348 1.697249,0.288348 0.409801,0 1.087434,-0.0655 1.34522,-0.130032 0.05435,-0.01361 0.21284,0.07181 0.55053,0.296722 0.662948,0.441528 1.112553,0.810026 1.112553,0.911852 0,0.06763 -0.460018,0.199655 -0.893691,0.256488 -0.220686,0.02891 -0.551607,0.07666 -0.735378,0.106094 -0.373157,0.05976 -0.876163,0.09193 -1.07024,0.06844 z m 6.293234,-1.043466 c -0.362338,-0.692291 -0.737311,-1.210021 -1.301211,-1.796599 -0.310356,-0.322834 -0.386387,-0.420395 -0.327619,-0.420395 0.114019,0 0.831141,0.456953 1.403112,0.894069 0.157239,0.120163 0.340767,0.259518 0.407838,0.309676 0.182742,0.136655 0.212646,0.219349 0.214538,0.593261 0.0015,0.292422 -0.0102,0.358223 -0.08851,0.498374 -0.04962,0.08881 -0.107987,0.167228 -0.12971,0.174275 -0.02172,0.007 -0.102022,-0.106658 -0.178438,-0.252661 z M 16.314866,27.702583 c -0.140438,-0.02848 -0.394867,-0.07814 -0.565396,-0.11042 -0.824451,-0.156028 -2.097524,-0.536904 -2.698916,-0.807456 -0.360875,-0.162352 -0.826587,-0.503008 -0.593144,-0.43387 1.132697,0.335464 2.486705,0.562527 3.847735,0.645253 0.386532,0.02349 0.709036,0.04833 0.716674,0.0552 0.02515,0.02258 -0.142799,0.395209 -0.245127,0.543839 -0.05518,0.08015 -0.124212,0.148755 -0.153406,0.152456 -0.02921,0.0039 -0.167982,-0.01656 -0.30842,-0.045 z m 9.108472,-1.896474 C 25.190519,25.5702 24.778369,25.312425 24.084497,24.968739 23.3201,24.59012 22.764734,24.368296 21.658767,23.99985 c -1.859584,-0.619507 -4.23323,-1.119531 -5.376172,-1.132525 -0.705493,-0.008 -0.124155,-0.06459 0.889484,-0.08656 3.069911,-0.06653 4.542992,-0.09566 6.438215,-0.127301 1.163621,-0.01943 2.386517,-0.04417 2.717547,-0.05499 1.484888,-0.04851 3.200063,-0.05663 3.39434,-0.01608 0.698852,0.145877 3.082329,0.903827 4.182181,1.329943 1.163331,0.450711 2.239362,0.920905 3.165998,1.383458 l 0.875452,0.437003 -0.802498,0.02379 c -0.441373,0.01309 -1.795587,0.04308 -3.009364,0.06668 -1.213777,0.02362 -3.290238,0.06682 -4.614359,0.09604 -1.32412,0.02921 -2.7522,0.05144 -3.173511,0.04937 l -0.76602,-0.0039 z"
       id="path1" /></g></svg>
