<?xml version="1.0" encoding="UTF-8" standalone="no"?>
<svg
        viewBox="0 0 24 24"
        version="1.1"
        id="svg2"
        sodipodi:docname="checkmarkcircle_111048.svg"
        inkscape:version="1.4 (86a8ad7, 2024-10-11)"
        xmlns:inkscape="http://www.inkscape.org/namespaces/inkscape"
        xmlns:sodipodi="http://sodipodi.sourceforge.net/DTD/sodipodi-0.dtd"
        xmlns="http://www.w3.org/2000/svg"
        xmlns:svg="http://www.w3.org/2000/svg">
    <sodipodi:namedview
            id="namedview2"
            pagecolor="#505050"
            bordercolor="#eeeeee"
            borderopacity="1"
            inkscape:showpageshadow="0"
            inkscape:pageopacity="0"
            inkscape:pagecheckerboard="0"
            inkscape:deskcolor="#505050"
            inkscape:zoom="33.625"
            inkscape:cx="12"
            inkscape:cy="10.394052"
            inkscape:window-width="1920"
            inkscape:window-height="1009"
            inkscape:window-x="-8"
            inkscape:window-y="-4"
            inkscape:window-maximized="1"
            inkscape:current-layer="checkmark-circle"/>
    <defs
            id="defs1">
        <style
                id="style1">.cls-1{fill:#fff;opacity:0;}.cls-2{fill:#231f20;}
        </style>
    </defs>
    <title
            id="title1">checkmark-circle
    </title>
    <g
            id="Layer_2"
            data-name="Layer 2">
        <g
                id="checkmark-circle">
            <g
                    id="checkmark-circle-2"
                    data-name="checkmark-circle"
                    transform="translate(-0.02597457)">
                <path
                        class="cls-2"
                        d="m 9.71,11.29 a 1.0040916,1.0040916 0 0 0 -1.42,1.42 l 3,3 A 1,1 0 0 0 12,16 v 0 a 1,1 0 0 0 0.72,-0.34 l 7,-8 A 1,1 0 0 0 18.22,6.34 L 12,13.54 Z"
                        id="path1"
                        style="fill:#000000;fill-opacity:1"/>
                <path
                        class="cls-2"
                        d="m 21,11 v 0 a 1,1 0 0 0 -1,1 8,8 0 0 1 -8,8 v 0 A 8,8 0 0 1 6.33,6.36 7.93,7.93 0 0 1 12,4 8.79,8.79 0 0 1 13.9,4.22 1,1 0 1 0 14.37,2.28 10.54,10.54 0 0 0 12,2 10,10 0 0 0 5,19.09 9.93,9.93 0 0 0 12,22 v 0 A 10,10 0 0 0 22,12 1,1 0 0 0 21,11 Z"
                        id="path2"
                        style="fill:#000000;fill-opacity:1"/>
            </g>
        </g>
    </g>
</svg>
