<?xml version="1.0" ?><svg height="32" id="icon" viewBox="0 0 32 32" width="32" xmlns="http://www.w3.org/2000/svg"><defs><style>
      .cls-1 {
        fill: none;
      }
    </style></defs><rect height="2" width="6" x="8" y="14"/><rect height="2" width="12" x="8" y="6"/><rect height="2" width="12" x="8" y="10"/><rect height="2" width="6" x="8" y="24"/><path d="M30,24V22H27.8989a4.9678,4.9678,0,0,0-.7319-1.7529l1.49-1.49-1.414-1.414-1.49,1.49A4.9678,4.9678,0,0,0,24,18.1011V16H22v2.1011a4.9678,4.9678,0,0,0-1.7529.7319l-1.49-1.49-1.414,1.414,1.49,1.49A4.9678,4.9678,0,0,0,18.1011,22H16v2h2.1011a4.9678,4.9678,0,0,0,.7319,1.7529l-1.49,1.49,1.414,1.414,1.49-1.49A4.9678,4.9678,0,0,0,22,27.8989V30h2V27.8989a4.9678,4.9678,0,0,0,1.7529-.7319l1.49,1.49,1.414-1.414-1.49-1.49A4.9678,4.9678,0,0,0,27.8989,24Zm-7,2a3,3,0,1,1,3-3A3.0033,3.0033,0,0,1,23,26Z"/><path d="M14,30H6a2.0021,2.0021,0,0,1-2-2V4A2.0021,2.0021,0,0,1,6,2H22a2.0021,2.0021,0,0,1,2,2V14H22V4H6V28h8Z"/><rect class="cls-1" data-name="&lt;Transparent Rectangle&gt;" height="32" id="_Transparent_Rectangle_" width="32"/></svg>